<svg width="383" height="321" viewBox="0 0 383 321" fill="none" xmlns="http://www.w3.org/2000/svg">
<path d="M2.448 11.78L4.506 11.808C4.576 12.76 5.332 13.418 6.536 13.418C7.502 13.418 8.216 12.998 8.216 12.228C8.216 11.402 7.418 11.234 5.78 10.912C4.128 10.604 2.672 10.072 2.672 8.084C2.672 6.348 4.114 5.116 6.326 5.116C8.636 5.116 10.106 6.32 10.134 8.196H8.076C7.978 7.37 7.348 6.796 6.326 6.796C5.43 6.796 4.786 7.174 4.786 7.93C4.786 8.728 5.556 8.896 7.18 9.204C8.86 9.512 10.344 10.016 10.33 11.99C10.316 13.824 8.804 15.084 6.508 15.084C4.016 15.084 2.462 13.768 2.448 11.78ZM11.954 12.942V9.47H10.764V7.804H11.954V5.788H13.928V7.804H15.58V9.47H13.928V12.62C13.928 13.124 14.124 13.334 14.642 13.334H15.622V15H14.012C12.64 15 11.954 14.314 11.954 12.942ZM19.9822 15.084C17.5882 15.084 16.1462 13.642 16.1462 11.416C16.1462 9.176 17.6162 7.72 19.8422 7.72C21.9982 7.72 23.4542 9.064 23.4822 11.178C23.4822 11.388 23.4682 11.626 23.4262 11.85H18.2042V11.948C18.2462 12.97 18.9042 13.586 19.8982 13.586C20.6962 13.586 21.2562 13.236 21.4242 12.564H23.3702C23.1462 13.964 21.9002 15.084 19.9822 15.084ZM18.2462 10.562H21.4942C21.3542 9.68 20.7522 9.19 19.8562 9.19C19.0022 9.19 18.3582 9.708 18.2462 10.562ZM28.691 7.72C30.637 7.706 32.037 9.148 32.037 11.416C32.037 13.656 30.637 15.084 28.705 15.084C27.711 15.084 26.997 14.678 26.535 14.09V17.8H24.561V7.804H26.283L26.479 8.798C26.941 8.182 27.669 7.72 28.691 7.72ZM28.257 13.474C29.335 13.474 30.035 12.62 30.035 11.388C30.035 10.17 29.335 9.33 28.257 9.33C27.179 9.33 26.507 10.17 26.507 11.388C26.507 12.62 27.179 13.474 28.257 13.474ZM32.7426 12.606H34.6186C34.6886 13.236 35.2346 13.67 36.2006 13.67C37.0266 13.67 37.5306 13.404 37.5306 12.9C37.5306 12.312 37.0406 12.27 35.8786 12.116C34.1986 11.92 32.8966 11.542 32.8966 10.058C32.8966 8.63 34.1426 7.692 35.9906 7.706C37.9226 7.706 39.2526 8.56 39.3506 10.03H37.4606C37.4046 9.456 36.8586 9.106 36.0606 9.106C35.2906 9.106 34.7866 9.386 34.7866 9.848C34.7866 10.394 35.4026 10.45 36.4386 10.576C38.0906 10.744 39.4626 11.122 39.4626 12.746C39.4626 14.174 38.1186 15.084 36.1866 15.084C34.1846 15.084 32.8266 14.146 32.7426 12.606Z" fill="#101928"/>
<path d="M30.77 46.772V41.2H32.87V46.884C32.87 48.438 33.444 49.278 34.788 49.278C36.146 49.278 36.72 48.438 36.72 46.884V41.2H38.82V46.772C38.82 49.558 37.434 51.084 34.788 51.084C32.156 51.084 30.77 49.558 30.77 46.772ZM44.4 43.72C46.346 43.706 47.746 45.148 47.746 47.416C47.746 49.656 46.346 51.084 44.414 51.084C43.42 51.084 42.706 50.678 42.244 50.09V53.8H40.27V43.804H41.992L42.188 44.798C42.65 44.182 43.378 43.72 44.4 43.72ZM43.966 49.474C45.044 49.474 45.744 48.62 45.744 47.388C45.744 46.17 45.044 45.33 43.966 45.33C42.888 45.33 42.216 46.17 42.216 47.388C42.216 48.62 42.888 49.474 43.966 49.474ZM48.8423 51V41.2H50.8163V51H48.8423ZM55.7059 51.084C53.4099 51.084 51.9119 49.614 51.9119 47.402C51.9119 45.19 53.4099 43.72 55.7059 43.72C58.0019 43.72 59.4999 45.19 59.4999 47.402C59.4999 49.628 58.0019 51.084 55.7059 51.084ZM55.7059 49.474C56.8119 49.474 57.4979 48.62 57.4979 47.402C57.4979 46.184 56.8119 45.33 55.7059 45.33C54.5999 45.33 53.9279 46.184 53.9279 47.402C53.9279 48.62 54.5999 49.474 55.7059 49.474ZM67.4464 49.334H67.6704V51H66.6624C65.6404 51 65.3184 50.51 65.3324 49.824C64.8284 50.622 64.1004 51.084 62.9804 51.084C61.4264 51.084 60.3064 50.342 60.3064 48.97C60.3064 47.444 61.4544 46.576 63.6104 46.576H65.0384V46.226C65.0384 45.582 64.5764 45.162 63.7504 45.162C62.9804 45.162 62.4624 45.512 62.3784 46.044H60.4744C60.6144 44.644 61.9024 43.72 63.8064 43.72C65.8224 43.72 66.9844 44.616 66.9844 46.338V48.886C66.9844 49.264 67.1384 49.334 67.4464 49.334ZM65.0384 48.032V47.892H63.5964C62.7704 47.892 62.2944 48.228 62.2944 48.83C62.2944 49.334 62.7004 49.656 63.3584 49.656C64.3944 49.656 65.0244 49.012 65.0384 48.032ZM73.6287 44.7V41.2H75.6027V51H73.8807L73.6847 50.006C73.2087 50.622 72.5087 51.084 71.4727 51.084C69.5407 51.084 68.1267 49.67 68.1267 47.388C68.1267 45.162 69.5407 43.72 71.4587 43.72C72.4527 43.72 73.1667 44.112 73.6287 44.7ZM71.9067 49.474C72.9847 49.474 73.6567 48.634 73.6567 47.416C73.6567 46.184 72.9847 45.33 71.9067 45.33C70.8287 45.33 70.1427 46.17 70.1427 47.402C70.1427 48.634 70.8287 49.474 71.9067 49.474ZM80.6056 51V41.2H83.3636L86.0796 48.396L88.7116 41.2H91.4136V51H89.4116V44.434L86.8636 51H85.1556L82.6076 44.434V51H80.6056ZM93.088 51V41.2H97.078C99.234 41.2 100.676 42.474 100.676 44.462C100.676 45.722 100.018 46.73 98.996 47.22L100.928 51H98.604L96.952 47.71H95.188V51H93.088ZM96.91 42.95H95.188V45.96H96.91C97.904 45.96 98.534 45.372 98.534 44.462C98.534 43.538 97.904 42.95 96.91 42.95ZM102.016 51V41.2H104.116V51H102.016ZM108.856 47.78L110.914 47.808C110.984 48.76 111.74 49.418 112.944 49.418C113.91 49.418 114.624 48.998 114.624 48.228C114.624 47.402 113.826 47.234 112.188 46.912C110.536 46.604 109.08 46.072 109.08 44.084C109.08 42.348 110.522 41.116 112.734 41.116C115.044 41.116 116.514 42.32 116.542 44.196H114.484C114.386 43.37 113.756 42.796 112.734 42.796C111.838 42.796 111.194 43.174 111.194 43.93C111.194 44.728 111.964 44.896 113.588 45.204C115.268 45.512 116.752 46.016 116.738 47.99C116.724 49.824 115.212 51.084 112.916 51.084C110.424 51.084 108.87 49.768 108.856 47.78ZM121.232 51.084C118.95 51.084 117.564 49.67 117.564 47.402C117.564 45.176 119.02 43.72 121.302 43.72C123.262 43.72 124.48 44.784 124.76 46.492H122.702C122.534 45.778 122.044 45.33 121.274 45.33C120.238 45.33 119.58 46.184 119.58 47.402C119.58 48.634 120.238 49.474 121.274 49.474C122.044 49.474 122.562 49.012 122.702 48.284H124.774C124.494 50.006 123.192 51.084 121.232 51.084ZM132.675 49.334H132.899V51H131.891C130.869 51 130.547 50.51 130.561 49.824C130.057 50.622 129.329 51.084 128.209 51.084C126.655 51.084 125.535 50.342 125.535 48.97C125.535 47.444 126.683 46.576 128.839 46.576H130.267V46.226C130.267 45.582 129.805 45.162 128.979 45.162C128.209 45.162 127.691 45.512 127.607 46.044H125.703C125.843 44.644 127.131 43.72 129.035 43.72C131.051 43.72 132.213 44.616 132.213 46.338V48.886C132.213 49.264 132.367 49.334 132.675 49.334ZM130.267 48.032V47.892H128.825C127.999 47.892 127.523 48.228 127.523 48.83C127.523 49.334 127.929 49.656 128.587 49.656C129.623 49.656 130.253 49.012 130.267 48.032ZM137.793 43.72C139.347 43.72 140.677 44.546 140.677 47.01V51H138.703V47.206C138.703 45.988 138.241 45.344 137.247 45.344C136.225 45.344 135.637 46.072 135.637 47.318V51H133.663V43.804H135.385L135.567 44.7C136.029 44.14 136.687 43.72 137.793 43.72Z" fill="#04802E"/>
<path d="M31.414 111H30.154L33.892 101.2H35.334L39.058 111H37.756L36.72 108.354H32.45L31.414 111ZM34.578 102.53L32.814 107.248H36.356L34.578 102.53ZM43.4988 103.776C45.1088 103.776 46.3828 104.658 46.3828 107.024V111H45.2348V107.094C45.2348 105.61 44.5488 104.826 43.3028 104.826C41.9588 104.826 41.1468 105.82 41.1468 107.43V111H39.9988V103.86H40.9928L41.1468 104.826C41.5668 104.28 42.2948 103.776 43.4988 103.776ZM54.1605 109.95H54.5245V111H53.8945C52.9425 111 52.6205 110.594 52.6065 109.894C52.1585 110.538 51.4445 111.084 50.2125 111.084C48.6445 111.084 47.5805 110.3 47.5805 108.998C47.5805 107.57 48.5745 106.772 50.4505 106.772H52.5505V106.282C52.5505 105.358 51.8925 104.798 50.7725 104.798C49.7645 104.798 49.0925 105.274 48.9525 106.002H47.8045C47.9725 104.602 49.1065 103.776 50.8285 103.776C52.6485 103.776 53.6985 104.686 53.6985 106.352V109.474C53.6985 109.852 53.8385 109.95 54.1605 109.95ZM52.5505 108.088V107.738H50.3385C49.3165 107.738 48.7425 108.116 48.7425 108.928C48.7425 109.628 49.3445 110.104 50.2965 110.104C51.7245 110.104 52.5505 109.278 52.5505 108.088ZM55.407 111V101.2H56.555V111H55.407ZM60.1998 111.042L57.4138 103.86H58.6318L60.8298 109.558L62.9578 103.86H64.1758L60.8858 112.204C60.4378 113.352 60.1718 113.8 59.1638 113.8H57.7918V112.75H58.8138C59.4718 112.75 59.5838 112.582 59.8498 111.91L60.1998 111.042ZM64.615 108.648H65.791C65.833 109.488 66.575 110.104 67.765 110.104C68.773 110.104 69.487 109.67 69.487 109.012C69.487 108.116 68.703 108.046 67.639 107.92C66.043 107.724 64.769 107.402 64.769 105.918C64.769 104.616 65.959 103.762 67.569 103.776C69.193 103.79 70.369 104.546 70.481 106.03H69.305C69.221 105.302 68.549 104.756 67.569 104.756C66.575 104.756 65.903 105.176 65.903 105.834C65.903 106.618 66.659 106.716 67.695 106.842C69.319 107.038 70.621 107.346 70.621 108.928C70.621 110.258 69.347 111.084 67.765 111.084C65.917 111.084 64.643 110.216 64.615 108.648ZM75.1853 111.084C73.0433 111.084 71.6433 109.614 71.6433 107.43C71.6433 105.26 73.0153 103.776 75.0313 103.776C77.0473 103.776 78.3633 105.05 78.4193 107.164C78.4193 107.318 78.4053 107.486 78.3913 107.654H72.8473V107.752C72.8893 109.11 73.7433 110.062 75.1013 110.062C76.1093 110.062 76.8933 109.53 77.1313 108.606H78.2933C78.0133 110.034 76.8373 111.084 75.1853 111.084ZM72.9173 106.702H77.1873C77.0753 105.47 76.2353 104.784 75.0453 104.784C73.9953 104.784 73.0293 105.54 72.9173 106.702ZM83.5614 111V101.2H85.1014L88.5734 109.334L92.0034 101.2H93.5154V111H92.3254V103.272L89.0774 111H87.9994L84.7514 103.272V111H83.5614ZM95.4149 111V101.2H99.1669C101.127 101.2 102.429 102.376 102.429 104.21C102.429 105.582 101.603 106.646 100.343 106.996L102.541 111H101.169L99.0969 107.234H96.6329V111H95.4149ZM99.0829 102.32H96.6329V106.114H99.0689C100.357 106.114 101.183 105.358 101.183 104.21C101.183 103.062 100.357 102.32 99.0829 102.32ZM103.973 111V101.2H105.191V111H103.973ZM110.363 107.794H111.623C111.721 109.11 112.743 109.978 114.241 109.978C115.557 109.978 116.495 109.376 116.495 108.312C116.495 107.094 115.291 106.842 113.807 106.59C112.225 106.324 110.601 105.806 110.601 103.902C110.601 102.236 111.959 101.116 113.947 101.116C116.131 101.116 117.475 102.334 117.587 104.098H116.327C116.187 102.964 115.277 102.222 113.947 102.222C112.673 102.222 111.819 102.782 111.819 103.832C111.819 105.008 113.009 105.246 114.479 105.498C116.075 105.764 117.713 106.296 117.713 108.2C117.713 109.894 116.285 111.084 114.227 111.084C111.833 111.084 110.433 109.726 110.363 107.794ZM122.297 111.084C120.211 111.084 118.839 109.67 118.839 107.444C118.839 105.26 120.253 103.776 122.325 103.776C124.075 103.776 125.181 104.756 125.475 106.324H124.271C124.061 105.372 123.361 104.798 122.311 104.798C120.939 104.798 120.015 105.89 120.015 107.444C120.015 108.998 120.939 110.062 122.311 110.062C123.333 110.062 124.033 109.474 124.257 108.564H125.475C125.195 110.104 124.033 111.084 122.297 111.084ZM133.047 109.95H133.411V111H132.781C131.829 111 131.507 110.594 131.493 109.894C131.045 110.538 130.331 111.084 129.099 111.084C127.531 111.084 126.467 110.3 126.467 108.998C126.467 107.57 127.461 106.772 129.337 106.772H131.437V106.282C131.437 105.358 130.779 104.798 129.659 104.798C128.651 104.798 127.979 105.274 127.839 106.002H126.691C126.859 104.602 127.993 103.776 129.715 103.776C131.535 103.776 132.585 104.686 132.585 106.352V109.474C132.585 109.852 132.725 109.95 133.047 109.95ZM131.437 108.088V107.738H129.225C128.203 107.738 127.629 108.116 127.629 108.928C127.629 109.628 128.231 110.104 129.183 110.104C130.611 110.104 131.437 109.278 131.437 108.088ZM137.794 103.776C139.404 103.776 140.678 104.658 140.678 107.024V111H139.53V107.094C139.53 105.61 138.844 104.826 137.598 104.826C136.254 104.826 135.442 105.82 135.442 107.43V111H134.294V103.86H135.288L135.442 104.826C135.862 104.28 136.59 103.776 137.794 103.776Z" fill="#667185"/>
<path d="M34.088 171H30.952V161.2H34.088C37.154 161.2 39.016 163.16 39.016 166.1C39.016 169.026 37.154 171 34.088 171ZM32.17 162.32V169.88H34.088C36.468 169.88 37.77 168.382 37.77 166.1C37.77 163.804 36.468 162.32 34.088 162.32H32.17ZM43.6717 171.084C41.5857 171.084 40.1297 169.6 40.1297 167.43C40.1297 165.26 41.5857 163.776 43.6717 163.776C45.7577 163.776 47.2137 165.26 47.2137 167.43C47.2137 169.6 45.7577 171.084 43.6717 171.084ZM43.6717 170.062C45.0857 170.062 46.0377 168.956 46.0377 167.43C46.0377 165.904 45.0857 164.798 43.6717 164.798C42.2577 164.798 41.3057 165.904 41.3057 167.43C41.3057 168.956 42.2577 170.062 43.6717 170.062ZM49.9357 171L47.6257 163.86H48.8297L50.6077 169.67L52.4837 163.86H53.5477L55.3257 169.67L57.1877 163.86H58.3497L55.9697 171H54.7097L52.9877 165.694L51.1957 171H49.9357ZM62.7488 163.776C64.3588 163.776 65.6328 164.658 65.6328 167.024V171H64.4848V167.094C64.4848 165.61 63.7988 164.826 62.5528 164.826C61.2088 164.826 60.3968 165.82 60.3968 167.43V171H59.2488V163.86H60.2428L60.3968 164.826C60.8168 164.28 61.5448 163.776 62.7488 163.776ZM67.0965 171V161.2H68.2445V171H67.0965ZM73.1072 171.084C71.0212 171.084 69.5652 169.6 69.5652 167.43C69.5652 165.26 71.0212 163.776 73.1072 163.776C75.1932 163.776 76.6492 165.26 76.6492 167.43C76.6492 169.6 75.1932 171.084 73.1072 171.084ZM73.1072 170.062C74.5212 170.062 75.4732 168.956 75.4732 167.43C75.4732 165.904 74.5212 164.798 73.1072 164.798C71.6932 164.798 70.7412 165.904 70.7412 167.43C70.7412 168.956 71.6932 170.062 73.1072 170.062ZM84.2796 169.95H84.6436V171H84.0136C83.0616 171 82.7396 170.594 82.7256 169.894C82.2776 170.538 81.5636 171.084 80.3316 171.084C78.7636 171.084 77.6996 170.3 77.6996 168.998C77.6996 167.57 78.6936 166.772 80.5696 166.772H82.6696V166.282C82.6696 165.358 82.0116 164.798 80.8916 164.798C79.8836 164.798 79.2116 165.274 79.0716 166.002H77.9236C78.0916 164.602 79.2256 163.776 80.9476 163.776C82.7676 163.776 83.8176 164.686 83.8176 166.352V169.474C83.8176 169.852 83.9576 169.95 84.2796 169.95ZM82.6696 168.088V167.738H80.4576C79.4356 167.738 78.8616 168.116 78.8616 168.928C78.8616 169.628 79.4636 170.104 80.4156 170.104C81.8436 170.104 82.6696 169.278 82.6696 168.088ZM91.0722 164.952V161.2H92.2202V171H91.2262L91.0722 169.852C90.5962 170.51 89.8262 171.084 88.6222 171.084C86.6482 171.084 85.1922 169.754 85.1922 167.43C85.1922 165.246 86.6482 163.776 88.6222 163.776C89.8262 163.776 90.6382 164.266 91.0722 164.952ZM88.7342 170.062C90.1342 170.062 91.0862 168.984 91.0862 167.458C91.0862 165.89 90.1342 164.798 88.7342 164.798C87.3202 164.798 86.3682 165.876 86.3682 167.43C86.3682 168.984 87.3202 170.062 88.7342 170.062ZM97.6161 171V161.2H101.368C103.328 161.2 104.63 162.376 104.63 164.21C104.63 165.582 103.804 166.646 102.544 166.996L104.742 171H103.37L101.298 167.234H98.8341V171H97.6161ZM101.284 162.32H98.8341V166.114H101.27C102.558 166.114 103.384 165.358 103.384 164.21C103.384 163.062 102.558 162.32 101.284 162.32ZM108.928 171.084C106.786 171.084 105.386 169.614 105.386 167.43C105.386 165.26 106.758 163.776 108.774 163.776C110.79 163.776 112.106 165.05 112.162 167.164C112.162 167.318 112.148 167.486 112.134 167.654H106.59V167.752C106.632 169.11 107.486 170.062 108.844 170.062C109.852 170.062 110.636 169.53 110.874 168.606H112.036C111.756 170.034 110.58 171.084 108.928 171.084ZM106.66 166.702H110.93C110.818 165.47 109.978 164.784 108.788 164.784C107.738 164.784 106.772 165.54 106.66 166.702ZM117.07 163.776C119.044 163.776 120.5 165.106 120.5 167.43C120.5 169.614 119.044 171.084 117.07 171.084C115.866 171.084 115.054 170.594 114.62 169.908V173.8H113.472V163.86H114.466L114.62 165.008C115.096 164.35 115.866 163.776 117.07 163.776ZM116.958 170.062C118.372 170.062 119.324 168.984 119.324 167.43C119.324 165.876 118.372 164.798 116.958 164.798C115.558 164.798 114.606 165.876 114.606 167.402C114.606 168.97 115.558 170.062 116.958 170.062ZM125.101 171.084C123.015 171.084 121.559 169.6 121.559 167.43C121.559 165.26 123.015 163.776 125.101 163.776C127.187 163.776 128.643 165.26 128.643 167.43C128.643 169.6 127.187 171.084 125.101 171.084ZM125.101 170.062C126.515 170.062 127.467 168.956 127.467 167.43C127.467 165.904 126.515 164.798 125.101 164.798C123.687 164.798 122.735 165.904 122.735 167.43C122.735 168.956 123.687 170.062 125.101 170.062ZM133.264 163.86H133.586V164.98H133.012C131.514 164.98 131.108 166.226 131.108 167.36V171H129.96V163.86H130.954L131.108 164.938C131.444 164.392 131.99 163.86 133.264 163.86ZM135.345 169.138V164.91H134.057V163.86H135.345V161.858H136.493V163.86H138.341V164.91H136.493V169.124C136.493 169.726 136.703 169.95 137.319 169.95H138.453V171H137.207C135.835 171 135.345 170.398 135.345 169.138Z" fill="#667185"/>
<rect width="2" height="126" transform="translate(9 50)" fill="#E4E7EC"/>
<rect x="9" y="50" width="2" height="71" fill="#E4E7EC"/>
<rect x="1.25" y="37.25" width="17.5" height="17.5" rx="8.75" fill="#04802E"/>
<rect x="1.25" y="37.25" width="17.5" height="17.5" rx="8.75" stroke="white" stroke-width="1.5"/>
<rect x="1.25" y="97.25" width="17.5" height="17.5" rx="8.75" fill="#98A2B3"/>
<rect x="1.25" y="97.25" width="17.5" height="17.5" rx="8.75" stroke="white" stroke-width="1.5"/>
<rect x="1.25" y="157.25" width="17.5" height="17.5" rx="8.75" fill="#98A2B3"/>
<rect x="1.25" y="157.25" width="17.5" height="17.5" rx="8.75" stroke="white" stroke-width="1.5"/>
</svg>
